<mxfile host="Electron" agent="Mozilla/5.0 (Windows NT 10.0; Win64; x64) AppleWebKit/537.36 (KHTML, like Gecko) draw.io/27.0.9 Chrome/134.0.6998.205 Electron/35.4.0 Safari/537.36" version="27.0.9">
  <diagram name="Page-1" id="-OWu8PvsoeIzkHkp0CHr">
    <mxGraphModel dx="1426" dy="849" grid="1" gridSize="10" guides="1" tooltips="1" connect="1" arrows="1" fold="1" page="1" pageScale="1" pageWidth="827" pageHeight="1169" background="none" math="0" shadow="0">
      <root>
        <mxCell id="0" />
        <mxCell id="1" parent="0" />
        <mxCell id="M4hbqnrO3drfDTdUJm-M-5" style="edgeStyle=orthogonalEdgeStyle;rounded=0;orthogonalLoop=1;jettySize=auto;html=1;exitX=1;exitY=0.5;exitDx=0;exitDy=0;entryX=0;entryY=0.5;entryDx=0;entryDy=0;" edge="1" parent="1" source="M4hbqnrO3drfDTdUJm-M-3" target="M4hbqnrO3drfDTdUJm-M-4">
          <mxGeometry relative="1" as="geometry" />
        </mxCell>
        <mxCell id="M4hbqnrO3drfDTdUJm-M-3" value="Reception" style="rounded=0;whiteSpace=wrap;html=1;" vertex="1" parent="1">
          <mxGeometry x="50" y="80" width="120" height="60" as="geometry" />
        </mxCell>
        <mxCell id="M4hbqnrO3drfDTdUJm-M-7" style="edgeStyle=orthogonalEdgeStyle;rounded=0;orthogonalLoop=1;jettySize=auto;html=1;exitX=1;exitY=0.5;exitDx=0;exitDy=0;entryX=0;entryY=0.5;entryDx=0;entryDy=0;" edge="1" parent="1" source="M4hbqnrO3drfDTdUJm-M-4" target="M4hbqnrO3drfDTdUJm-M-6">
          <mxGeometry relative="1" as="geometry" />
        </mxCell>
        <mxCell id="M4hbqnrO3drfDTdUJm-M-4" value="Stock" style="rounded=0;whiteSpace=wrap;html=1;" vertex="1" parent="1">
          <mxGeometry x="230" y="80" width="120" height="60" as="geometry" />
        </mxCell>
        <mxCell id="M4hbqnrO3drfDTdUJm-M-10" style="edgeStyle=orthogonalEdgeStyle;rounded=0;orthogonalLoop=1;jettySize=auto;html=1;exitX=1;exitY=0.5;exitDx=0;exitDy=0;entryX=0;entryY=0.5;entryDx=0;entryDy=0;" edge="1" parent="1" source="M4hbqnrO3drfDTdUJm-M-6" target="M4hbqnrO3drfDTdUJm-M-8">
          <mxGeometry relative="1" as="geometry" />
        </mxCell>
        <mxCell id="M4hbqnrO3drfDTdUJm-M-6" value="Préparation" style="rounded=0;whiteSpace=wrap;html=1;" vertex="1" parent="1">
          <mxGeometry x="414" y="80" width="120" height="60" as="geometry" />
        </mxCell>
        <mxCell id="M4hbqnrO3drfDTdUJm-M-11" style="edgeStyle=orthogonalEdgeStyle;rounded=0;orthogonalLoop=1;jettySize=auto;html=1;exitX=1;exitY=0.5;exitDx=0;exitDy=0;entryX=0;entryY=0.5;entryDx=0;entryDy=0;" edge="1" parent="1" source="M4hbqnrO3drfDTdUJm-M-8" target="M4hbqnrO3drfDTdUJm-M-9">
          <mxGeometry relative="1" as="geometry" />
        </mxCell>
        <mxCell id="M4hbqnrO3drfDTdUJm-M-8" value="Expédition" style="rounded=0;whiteSpace=wrap;html=1;" vertex="1" parent="1">
          <mxGeometry x="590" y="80" width="120" height="60" as="geometry" />
        </mxCell>
        <mxCell id="M4hbqnrO3drfDTdUJm-M-9" value="Retour" style="rounded=0;whiteSpace=wrap;html=1;" vertex="1" parent="1">
          <mxGeometry x="760" y="80" width="120" height="60" as="geometry" />
        </mxCell>
        <mxCell id="M4hbqnrO3drfDTdUJm-M-19" style="edgeStyle=orthogonalEdgeStyle;rounded=0;orthogonalLoop=1;jettySize=auto;html=1;exitX=0.75;exitY=0;exitDx=0;exitDy=0;entryX=0.5;entryY=1;entryDx=0;entryDy=0;" edge="1" parent="1" source="M4hbqnrO3drfDTdUJm-M-12" target="M4hbqnrO3drfDTdUJm-M-4">
          <mxGeometry relative="1" as="geometry" />
        </mxCell>
        <mxCell id="M4hbqnrO3drfDTdUJm-M-12" value="Service de réparation des frigos" style="shape=process;whiteSpace=wrap;html=1;backgroundOutline=1;" vertex="1" parent="1">
          <mxGeometry x="140" y="190" width="120" height="60" as="geometry" />
        </mxCell>
        <mxCell id="M4hbqnrO3drfDTdUJm-M-18" style="edgeStyle=orthogonalEdgeStyle;rounded=0;orthogonalLoop=1;jettySize=auto;html=1;exitX=0.5;exitY=1;exitDx=0;exitDy=0;entryX=0.325;entryY=0.017;entryDx=0;entryDy=0;entryPerimeter=0;" edge="1" parent="1" source="M4hbqnrO3drfDTdUJm-M-3" target="M4hbqnrO3drfDTdUJm-M-12">
          <mxGeometry relative="1" as="geometry" />
        </mxCell>
        <mxCell id="M4hbqnrO3drfDTdUJm-M-20" value="Service de réparation des frigos" style="text;html=1;align=center;verticalAlign=middle;whiteSpace=wrap;rounded=0;" vertex="1" parent="1">
          <mxGeometry x="320" y="290" width="160" height="30" as="geometry" />
        </mxCell>
        <mxCell id="M4hbqnrO3drfDTdUJm-M-23" style="edgeStyle=orthogonalEdgeStyle;rounded=0;orthogonalLoop=1;jettySize=auto;html=1;exitX=0.5;exitY=1;exitDx=0;exitDy=0;entryX=0.5;entryY=0;entryDx=0;entryDy=0;" edge="1" parent="1" source="M4hbqnrO3drfDTdUJm-M-21" target="M4hbqnrO3drfDTdUJm-M-22">
          <mxGeometry relative="1" as="geometry" />
        </mxCell>
        <mxCell id="M4hbqnrO3drfDTdUJm-M-21" value="Entré équipement" style="rounded=0;whiteSpace=wrap;html=1;" vertex="1" parent="1">
          <mxGeometry x="340" y="350" width="120" height="60" as="geometry" />
        </mxCell>
        <mxCell id="M4hbqnrO3drfDTdUJm-M-25" style="edgeStyle=orthogonalEdgeStyle;rounded=0;orthogonalLoop=1;jettySize=auto;html=1;exitX=0.5;exitY=1;exitDx=0;exitDy=0;entryX=0.5;entryY=0;entryDx=0;entryDy=0;" edge="1" parent="1" source="M4hbqnrO3drfDTdUJm-M-22" target="M4hbqnrO3drfDTdUJm-M-24">
          <mxGeometry relative="1" as="geometry" />
        </mxCell>
        <mxCell id="M4hbqnrO3drfDTdUJm-M-22" value="Stock frigos en attente" style="rounded=0;whiteSpace=wrap;html=1;" vertex="1" parent="1">
          <mxGeometry x="340" y="460" width="120" height="60" as="geometry" />
        </mxCell>
        <mxCell id="M4hbqnrO3drfDTdUJm-M-27" style="edgeStyle=orthogonalEdgeStyle;rounded=0;orthogonalLoop=1;jettySize=auto;html=1;exitX=0.75;exitY=1;exitDx=0;exitDy=0;entryX=0.5;entryY=0;entryDx=0;entryDy=0;" edge="1" parent="1" source="M4hbqnrO3drfDTdUJm-M-24" target="M4hbqnrO3drfDTdUJm-M-26">
          <mxGeometry relative="1" as="geometry" />
        </mxCell>
        <mxCell id="M4hbqnrO3drfDTdUJm-M-29" style="edgeStyle=orthogonalEdgeStyle;rounded=0;orthogonalLoop=1;jettySize=auto;html=1;exitX=0.25;exitY=1;exitDx=0;exitDy=0;entryX=0.5;entryY=0;entryDx=0;entryDy=0;" edge="1" parent="1" source="M4hbqnrO3drfDTdUJm-M-24" target="M4hbqnrO3drfDTdUJm-M-28">
          <mxGeometry relative="1" as="geometry" />
        </mxCell>
        <mxCell id="M4hbqnrO3drfDTdUJm-M-24" value="Diagnostic frigoriste" style="rounded=0;whiteSpace=wrap;html=1;" vertex="1" parent="1">
          <mxGeometry x="340" y="570" width="120" height="60" as="geometry" />
        </mxCell>
        <mxCell id="M4hbqnrO3drfDTdUJm-M-31" style="edgeStyle=orthogonalEdgeStyle;rounded=0;orthogonalLoop=1;jettySize=auto;html=1;exitX=0.5;exitY=1;exitDx=0;exitDy=0;entryX=0.5;entryY=0;entryDx=0;entryDy=0;" edge="1" parent="1" source="M4hbqnrO3drfDTdUJm-M-26" target="M4hbqnrO3drfDTdUJm-M-30">
          <mxGeometry relative="1" as="geometry" />
        </mxCell>
        <mxCell id="M4hbqnrO3drfDTdUJm-M-26" value="Donneur de pièce" style="rounded=0;whiteSpace=wrap;html=1;" vertex="1" parent="1">
          <mxGeometry x="480" y="680" width="120" height="60" as="geometry" />
        </mxCell>
        <mxCell id="M4hbqnrO3drfDTdUJm-M-43" style="edgeStyle=orthogonalEdgeStyle;rounded=0;orthogonalLoop=1;jettySize=auto;html=1;exitX=0.5;exitY=1;exitDx=0;exitDy=0;entryX=0.5;entryY=0;entryDx=0;entryDy=0;" edge="1" parent="1" source="M4hbqnrO3drfDTdUJm-M-28" target="M4hbqnrO3drfDTdUJm-M-42">
          <mxGeometry relative="1" as="geometry" />
        </mxCell>
        <mxCell id="M4hbqnrO3drfDTdUJm-M-28" value="Réparable" style="rounded=0;whiteSpace=wrap;html=1;" vertex="1" parent="1">
          <mxGeometry x="200" y="680" width="120" height="60" as="geometry" />
        </mxCell>
        <mxCell id="M4hbqnrO3drfDTdUJm-M-35" style="edgeStyle=orthogonalEdgeStyle;rounded=0;orthogonalLoop=1;jettySize=auto;html=1;exitX=0.5;exitY=1;exitDx=0;exitDy=0;entryX=0.5;entryY=0;entryDx=0;entryDy=0;" edge="1" parent="1" source="M4hbqnrO3drfDTdUJm-M-30" target="M4hbqnrO3drfDTdUJm-M-32">
          <mxGeometry relative="1" as="geometry" />
        </mxCell>
        <mxCell id="M4hbqnrO3drfDTdUJm-M-30" value="Démontage" style="rounded=0;whiteSpace=wrap;html=1;" vertex="1" parent="1">
          <mxGeometry x="480" y="770" width="120" height="60" as="geometry" />
        </mxCell>
        <mxCell id="M4hbqnrO3drfDTdUJm-M-38" style="edgeStyle=orthogonalEdgeStyle;rounded=0;orthogonalLoop=1;jettySize=auto;html=1;exitX=0.25;exitY=1;exitDx=0;exitDy=0;entryX=0.5;entryY=0;entryDx=0;entryDy=0;" edge="1" parent="1" source="M4hbqnrO3drfDTdUJm-M-32" target="M4hbqnrO3drfDTdUJm-M-36">
          <mxGeometry relative="1" as="geometry" />
        </mxCell>
        <mxCell id="M4hbqnrO3drfDTdUJm-M-39" style="edgeStyle=orthogonalEdgeStyle;rounded=0;orthogonalLoop=1;jettySize=auto;html=1;exitX=0.75;exitY=1;exitDx=0;exitDy=0;entryX=0.5;entryY=0;entryDx=0;entryDy=0;" edge="1" parent="1" source="M4hbqnrO3drfDTdUJm-M-32" target="M4hbqnrO3drfDTdUJm-M-37">
          <mxGeometry relative="1" as="geometry" />
        </mxCell>
        <mxCell id="M4hbqnrO3drfDTdUJm-M-32" value="Stock pièces" style="rounded=0;whiteSpace=wrap;html=1;" vertex="1" parent="1">
          <mxGeometry x="480" y="860" width="120" height="60" as="geometry" />
        </mxCell>
        <mxCell id="M4hbqnrO3drfDTdUJm-M-46" style="edgeStyle=orthogonalEdgeStyle;rounded=0;orthogonalLoop=1;jettySize=auto;html=1;exitX=0.25;exitY=1;exitDx=0;exitDy=0;entryX=0.75;entryY=0;entryDx=0;entryDy=0;" edge="1" parent="1" source="M4hbqnrO3drfDTdUJm-M-36" target="M4hbqnrO3drfDTdUJm-M-44">
          <mxGeometry relative="1" as="geometry" />
        </mxCell>
        <mxCell id="M4hbqnrO3drfDTdUJm-M-36" value="Pièces disponibles" style="rounded=0;whiteSpace=wrap;html=1;" vertex="1" parent="1">
          <mxGeometry x="400" y="960" width="120" height="60" as="geometry" />
        </mxCell>
        <mxCell id="M4hbqnrO3drfDTdUJm-M-37" value="Destruction du reste&lt;div&gt;Mise en statue &quot;destruction&quot;&lt;/div&gt;" style="rounded=0;whiteSpace=wrap;html=1;" vertex="1" parent="1">
          <mxGeometry x="560" y="960" width="120" height="60" as="geometry" />
        </mxCell>
        <mxCell id="M4hbqnrO3drfDTdUJm-M-40" value="" style="html=1;verticalLabelPosition=bottom;align=center;labelBackgroundColor=#ffffff;verticalAlign=top;strokeWidth=2;strokeColor=#0080F0;shadow=0;dashed=0;shape=mxgraph.ios7.icons.add;" vertex="1" parent="1">
          <mxGeometry x="459" y="875" width="30" height="30" as="geometry" />
        </mxCell>
        <mxCell id="M4hbqnrO3drfDTdUJm-M-41" value="" style="html=1;verticalLabelPosition=bottom;align=center;labelBackgroundColor=#ffffff;verticalAlign=top;strokeWidth=2;strokeColor=#0080F0;shadow=0;dashed=0;shape=mxgraph.ios7.icons.add;" vertex="1" parent="1">
          <mxGeometry x="320" y="475" width="30" height="30" as="geometry" />
        </mxCell>
        <mxCell id="M4hbqnrO3drfDTdUJm-M-45" style="edgeStyle=orthogonalEdgeStyle;rounded=0;orthogonalLoop=1;jettySize=auto;html=1;exitX=0.75;exitY=1;exitDx=0;exitDy=0;entryX=0.25;entryY=0;entryDx=0;entryDy=0;" edge="1" parent="1" source="M4hbqnrO3drfDTdUJm-M-42" target="M4hbqnrO3drfDTdUJm-M-44">
          <mxGeometry relative="1" as="geometry" />
        </mxCell>
        <mxCell id="M4hbqnrO3drfDTdUJm-M-42" value="Attente de pièces" style="rounded=0;whiteSpace=wrap;html=1;" vertex="1" parent="1">
          <mxGeometry x="200" y="960" width="120" height="60" as="geometry" />
        </mxCell>
        <mxCell id="M4hbqnrO3drfDTdUJm-M-48" style="edgeStyle=orthogonalEdgeStyle;rounded=0;orthogonalLoop=1;jettySize=auto;html=1;exitX=0.5;exitY=1;exitDx=0;exitDy=0;" edge="1" parent="1" source="M4hbqnrO3drfDTdUJm-M-44" target="M4hbqnrO3drfDTdUJm-M-47">
          <mxGeometry relative="1" as="geometry" />
        </mxCell>
        <mxCell id="M4hbqnrO3drfDTdUJm-M-44" value="Atelier de réparation" style="rounded=0;whiteSpace=wrap;html=1;" vertex="1" parent="1">
          <mxGeometry x="300" y="1060" width="120" height="60" as="geometry" />
        </mxCell>
        <mxCell id="M4hbqnrO3drfDTdUJm-M-50" style="edgeStyle=orthogonalEdgeStyle;rounded=0;orthogonalLoop=1;jettySize=auto;html=1;exitX=0.5;exitY=1;exitDx=0;exitDy=0;entryX=0.5;entryY=0;entryDx=0;entryDy=0;" edge="1" parent="1" source="M4hbqnrO3drfDTdUJm-M-47" target="M4hbqnrO3drfDTdUJm-M-49">
          <mxGeometry relative="1" as="geometry" />
        </mxCell>
        <mxCell id="M4hbqnrO3drfDTdUJm-M-47" value="Frigo réparé" style="rounded=0;whiteSpace=wrap;html=1;" vertex="1" parent="1">
          <mxGeometry x="300" y="1160" width="120" height="60" as="geometry" />
        </mxCell>
        <mxCell id="M4hbqnrO3drfDTdUJm-M-49" value="Stock équipements prêts" style="rounded=0;whiteSpace=wrap;html=1;" vertex="1" parent="1">
          <mxGeometry x="300" y="1260" width="120" height="60" as="geometry" />
        </mxCell>
      </root>
    </mxGraphModel>
  </diagram>
</mxfile>
